<?xml version="1.0" encoding="UTF-8"?><svg id="b" xmlns="http://www.w3.org/2000/svg" viewBox="0 0 481.03 128.45"><g id="c"><path d="M95.1,87.74c-1.89.56-3.39.77-5.37.77-16.17,0-39.92-56.51-39.92-75.32,0-6.92,1.64-9.23,3.95-11.22C33.98,4.28,10.23,11.54,2.64,20.78c-1.64,2.31-2.64,5.94-2.64,10.56,0,29.36,31.34,95.98,53.44,95.98,10.23,0,27.47-16.81,41.66-39.58" style="fill:#f49700; stroke-width:0px;"/><path d="M84.78,0c20.45,0,40.92,3.3,40.92,14.84,0,23.42-14.85,51.8-22.43,51.8-13.53,0-30.35-37.61-30.35-56.42,0-8.58,3.3-10.22,11.87-10.22" style="fill:#f49700; stroke-width:0px;"/><path d="M194.26,41.5v85.99h-11.99V41.5h-21.22v-10.48h54.43v10.48h-21.22Z" style="fill:#000; stroke-width:0px;"/><path d="M257.38,82.7v44.79h-12.4v-44.79l-24.66-51.68h13.23l18.19,40.1,18.19-40.1h12.54l-25.08,51.68Z" style="fill:#000; stroke-width:0px;"/><path d="M320.49,91.1h-11.58v36.38h-11.99V31.02s11.85-.96,23.29-.96c20.95,0,27.01,12.95,27.01,29.9,0,20.95-7.17,31.14-26.74,31.14ZM321.87,39.98c-7.58,0-12.95.83-12.95.83v40.24h12.95c7.72,0,13.09-5.1,13.09-20.12,0-13.78-3.31-20.95-13.09-20.95Z" style="fill:#000; stroke-width:0px;"/><path d="M391.87,128.45c-22.74,0-28.8-16.54-28.8-50.29s6.06-48.09,28.8-48.09,28.8,15.71,28.8,48.09c0,33.76-6.06,50.29-28.8,50.29ZM391.87,40.12c-12.4,0-16.54,8.41-16.54,38.72s4.13,39.55,16.54,39.55,16.53-9.92,16.53-39.55-4.13-38.72-16.53-38.72Z" style="fill:#000; stroke-width:0px;"/><path d="M457.74,128.45c-6.75,0-16.81-2.07-18.05-2.34v-10.34c3.31.69,11.85,2.21,17.91,2.21,7.03,0,11.58-5.79,11.58-16.4,0-12.82-2.07-19.15-11.85-19.15h-11.3v-10.06h9.92c11.16,0,11.71-11.43,11.71-16.95,0-10.89-3.45-15.3-10.34-15.3-6.06,0-12.95,1.52-16.95,2.34v-10.06c1.52-.28,9.65-2.34,16.67-2.34,14.19,0,22.32,6.06,22.32,26.6,0,9.37-2.89,17.64-10.47,19.98,8.96,1.24,12.13,10.06,12.13,23.57,0,20.53-7.99,28.25-23.29,28.25Z" style="fill:#000; stroke-width:0px;"/></g></svg>